<svg width="24" height="24" viewBox="0 0 24 24" fill="none" xmlns="http://www.w3.org/2000/svg">
<path fill-rule="evenodd" clip-rule="evenodd" d="M1 1.25006C0.585786 1.25006 0.25 1.58585 0.25 2.00006C0.25 2.41427 0.585786 2.75006 1 2.75006H1.78428C2.77204 2.75006 3.64429 3.39429 3.93478 4.33837L6.63155 13.1029C7.1157 14.6764 8.56946 15.7501 10.2157 15.7501H16.7679C18.4239 15.7501 19.8839 14.6638 20.3598 13.0776L21.946 7.79027C22.4753 6.02584 21.1541 4.25006 19.3119 4.25006H5.5C5.49234 4.25006 5.48471 4.25018 5.47711 4.2504L5.36845 3.89724C4.8843 2.32377 3.43054 1.25006 1.78428 1.25006H1ZM8.06522 12.6618L5.93855 5.75006H19.3119C20.1493 5.75006 20.7498 6.55723 20.5092 7.35925L18.923 12.6466C18.6375 13.5983 17.7615 14.2501 16.7679 14.2501H10.2157C9.22796 14.2501 8.35571 13.6058 8.06522 12.6618ZM10 18.75C9.30964 18.75 8.75 19.3096 8.75 20C8.75 20.6904 9.30964 21.25 10 21.25C10.6904 21.25 11.25 20.6904 11.25 20C11.25 19.3096 10.6904 18.75 10 18.75ZM7.25 20C7.25 18.4812 8.48122 17.25 10 17.25C11.5188 17.25 12.75 18.4812 12.75 20C12.75 21.5188 11.5188 22.75 10 22.75C8.48122 22.75 7.25 21.5188 7.25 20ZM18 18.75C17.3096 18.75 16.75 19.3096 16.75 20C16.75 20.6904 17.3096 21.25 18 21.25C18.6904 21.25 19.25 20.6904 19.25 20C19.25 19.3096 18.6904 18.75 18 18.75ZM15.25 20C15.25 18.4812 16.4812 17.25 18 17.25C19.5188 17.25 20.75 18.4812 20.75 20C20.75 21.5188 19.5188 22.75 18 22.75C16.4812 22.75 15.25 21.5188 15.25 20Z" fill="white"/>
</svg>
